<mxfile host="www.draw.io" modified="2020-02-07T22:26:24.098Z" agent="Mozilla/5.0 (Macintosh; Intel Mac OS X 10_14_6) AppleWebKit/537.36 (KHTML, like Gecko) Chrome/79.0.3945.130 Safari/537.36" etag="uS0XxJ75Dwq2sN98-1P4" version="12.6.5" type="github">
  <diagram id="C5RBs43oDa-KdzZeNtuy" name="Page-1">
    <mxGraphModel dx="801" dy="483" grid="1" gridSize="10" guides="1" tooltips="1" connect="1" arrows="1" fold="1" page="1" pageScale="1" pageWidth="827" pageHeight="1169" math="0" shadow="0">
      <root>
        <mxCell id="WIyWlLk6GJQsqaUBKTNV-0"/>
        <mxCell id="WIyWlLk6GJQsqaUBKTNV-1" parent="WIyWlLk6GJQsqaUBKTNV-0"/>
        <mxCell id="jiIdjgE5yJWBijh_GqS3-66" style="edgeStyle=orthogonalEdgeStyle;rounded=0;orthogonalLoop=1;jettySize=auto;html=1;entryX=0;entryY=0.5;entryDx=0;entryDy=0;exitX=1;exitY=0.5;exitDx=0;exitDy=0;endArrow=ERmandOne;endFill=0;startArrow=ERmandOne;startFill=0;" parent="WIyWlLk6GJQsqaUBKTNV-1" source="jiIdjgE5yJWBijh_GqS3-6" target="jiIdjgE5yJWBijh_GqS3-17" edge="1">
          <mxGeometry relative="1" as="geometry">
            <mxPoint x="390" y="320" as="targetPoint"/>
          </mxGeometry>
        </mxCell>
        <mxCell id="jiIdjgE5yJWBijh_GqS3-5" value="User" style="swimlane;fontStyle=0;childLayout=stackLayout;horizontal=1;startSize=26;fillColor=#e0e0e0;horizontalStack=0;resizeParent=1;resizeParentMax=0;resizeLast=0;collapsible=1;marginBottom=0;swimlaneFillColor=#ffffff;align=center;fontSize=14;" parent="WIyWlLk6GJQsqaUBKTNV-1" vertex="1">
          <mxGeometry x="150" y="250" width="160" height="118" as="geometry"/>
        </mxCell>
        <mxCell id="jiIdjgE5yJWBijh_GqS3-6" value="id" style="shape=partialRectangle;top=0;left=0;right=0;bottom=1;align=left;verticalAlign=middle;fillColor=none;spacingLeft=34;spacingRight=4;overflow=hidden;rotatable=0;points=[[0,0.5],[1,0.5]];portConstraint=eastwest;dropTarget=0;fontStyle=5;fontSize=12;" parent="jiIdjgE5yJWBijh_GqS3-5" vertex="1">
          <mxGeometry y="26" width="160" height="30" as="geometry"/>
        </mxCell>
        <mxCell id="jiIdjgE5yJWBijh_GqS3-7" value="PK" style="shape=partialRectangle;top=0;left=0;bottom=0;fillColor=none;align=left;verticalAlign=middle;spacingLeft=4;spacingRight=4;overflow=hidden;rotatable=0;points=[];portConstraint=eastwest;part=1;fontSize=12;" parent="jiIdjgE5yJWBijh_GqS3-6" vertex="1" connectable="0">
          <mxGeometry width="30" height="30" as="geometry"/>
        </mxCell>
        <mxCell id="jiIdjgE5yJWBijh_GqS3-8" value="email" style="shape=partialRectangle;top=0;left=0;right=0;bottom=0;align=left;verticalAlign=top;fillColor=none;spacingLeft=34;spacingRight=4;overflow=hidden;rotatable=0;points=[[0,0.5],[1,0.5]];portConstraint=eastwest;dropTarget=0;fontSize=12;" parent="jiIdjgE5yJWBijh_GqS3-5" vertex="1">
          <mxGeometry y="56" width="160" height="26" as="geometry"/>
        </mxCell>
        <mxCell id="jiIdjgE5yJWBijh_GqS3-9" value="" style="shape=partialRectangle;top=0;left=0;bottom=0;fillColor=none;align=left;verticalAlign=top;spacingLeft=4;spacingRight=4;overflow=hidden;rotatable=0;points=[];portConstraint=eastwest;part=1;fontSize=12;" parent="jiIdjgE5yJWBijh_GqS3-8" vertex="1" connectable="0">
          <mxGeometry width="30" height="26" as="geometry"/>
        </mxCell>
        <mxCell id="jiIdjgE5yJWBijh_GqS3-10" value="password" style="shape=partialRectangle;top=0;left=0;right=0;bottom=0;align=left;verticalAlign=top;fillColor=none;spacingLeft=34;spacingRight=4;overflow=hidden;rotatable=0;points=[[0,0.5],[1,0.5]];portConstraint=eastwest;dropTarget=0;fontSize=12;" parent="jiIdjgE5yJWBijh_GqS3-5" vertex="1">
          <mxGeometry y="82" width="160" height="26" as="geometry"/>
        </mxCell>
        <mxCell id="jiIdjgE5yJWBijh_GqS3-11" value="" style="shape=partialRectangle;top=0;left=0;bottom=0;fillColor=none;align=left;verticalAlign=top;spacingLeft=4;spacingRight=4;overflow=hidden;rotatable=0;points=[];portConstraint=eastwest;part=1;fontSize=12;" parent="jiIdjgE5yJWBijh_GqS3-10" vertex="1" connectable="0">
          <mxGeometry width="30" height="26" as="geometry"/>
        </mxCell>
        <mxCell id="jiIdjgE5yJWBijh_GqS3-14" value="" style="shape=partialRectangle;top=0;left=0;right=0;bottom=0;align=left;verticalAlign=top;fillColor=none;spacingLeft=34;spacingRight=4;overflow=hidden;rotatable=0;points=[[0,0.5],[1,0.5]];portConstraint=eastwest;dropTarget=0;fontSize=12;" parent="jiIdjgE5yJWBijh_GqS3-5" vertex="1">
          <mxGeometry y="108" width="160" height="10" as="geometry"/>
        </mxCell>
        <mxCell id="jiIdjgE5yJWBijh_GqS3-15" value="" style="shape=partialRectangle;top=0;left=0;bottom=0;fillColor=none;align=left;verticalAlign=top;spacingLeft=4;spacingRight=4;overflow=hidden;rotatable=0;points=[];portConstraint=eastwest;part=1;fontSize=12;" parent="jiIdjgE5yJWBijh_GqS3-14" vertex="1" connectable="0">
          <mxGeometry width="30" height="10" as="geometry"/>
        </mxCell>
        <mxCell id="e-rCDU7-2tgsD-Hm22mC-21" value="" style="edgeStyle=orthogonalEdgeStyle;rounded=0;orthogonalLoop=1;jettySize=auto;html=1;startArrow=ERmandOne;startFill=0;endArrow=ERzeroToMany;endFill=1;" edge="1" parent="WIyWlLk6GJQsqaUBKTNV-1" source="jiIdjgE5yJWBijh_GqS3-16" target="e-rCDU7-2tgsD-Hm22mC-4">
          <mxGeometry relative="1" as="geometry"/>
        </mxCell>
        <mxCell id="e-rCDU7-2tgsD-Hm22mC-130" style="edgeStyle=orthogonalEdgeStyle;rounded=0;orthogonalLoop=1;jettySize=auto;html=1;entryX=0.5;entryY=0;entryDx=0;entryDy=0;startArrow=ERmandOne;startFill=0;endArrow=ERone;endFill=0;" edge="1" parent="WIyWlLk6GJQsqaUBKTNV-1" source="jiIdjgE5yJWBijh_GqS3-16" target="e-rCDU7-2tgsD-Hm22mC-116">
          <mxGeometry relative="1" as="geometry"/>
        </mxCell>
        <mxCell id="jiIdjgE5yJWBijh_GqS3-16" value="Profile" style="swimlane;fontStyle=0;childLayout=stackLayout;horizontal=1;startSize=26;fillColor=#e0e0e0;horizontalStack=0;resizeParent=1;resizeParentMax=0;resizeLast=0;collapsible=1;marginBottom=0;swimlaneFillColor=#ffffff;align=center;fontSize=14;" parent="WIyWlLk6GJQsqaUBKTNV-1" vertex="1">
          <mxGeometry x="350" y="250" width="160" height="196" as="geometry"/>
        </mxCell>
        <mxCell id="jiIdjgE5yJWBijh_GqS3-17" value="id" style="shape=partialRectangle;top=0;left=0;right=0;bottom=1;align=left;verticalAlign=middle;fillColor=none;spacingLeft=34;spacingRight=4;overflow=hidden;rotatable=0;points=[[0,0.5],[1,0.5]];portConstraint=eastwest;dropTarget=0;fontStyle=5;fontSize=12;" parent="jiIdjgE5yJWBijh_GqS3-16" vertex="1">
          <mxGeometry y="26" width="160" height="30" as="geometry"/>
        </mxCell>
        <mxCell id="jiIdjgE5yJWBijh_GqS3-18" value="PK" style="shape=partialRectangle;top=0;left=0;bottom=0;fillColor=none;align=left;verticalAlign=middle;spacingLeft=4;spacingRight=4;overflow=hidden;rotatable=0;points=[];portConstraint=eastwest;part=1;fontSize=12;" parent="jiIdjgE5yJWBijh_GqS3-17" vertex="1" connectable="0">
          <mxGeometry width="30" height="30" as="geometry"/>
        </mxCell>
        <mxCell id="jiIdjgE5yJWBijh_GqS3-19" value="name" style="shape=partialRectangle;top=0;left=0;right=0;bottom=0;align=left;verticalAlign=top;fillColor=none;spacingLeft=34;spacingRight=4;overflow=hidden;rotatable=0;points=[[0,0.5],[1,0.5]];portConstraint=eastwest;dropTarget=0;fontSize=12;" parent="jiIdjgE5yJWBijh_GqS3-16" vertex="1">
          <mxGeometry y="56" width="160" height="26" as="geometry"/>
        </mxCell>
        <mxCell id="jiIdjgE5yJWBijh_GqS3-20" value="" style="shape=partialRectangle;top=0;left=0;bottom=0;fillColor=none;align=left;verticalAlign=top;spacingLeft=4;spacingRight=4;overflow=hidden;rotatable=0;points=[];portConstraint=eastwest;part=1;fontSize=12;" parent="jiIdjgE5yJWBijh_GqS3-19" vertex="1" connectable="0">
          <mxGeometry width="30" height="26" as="geometry"/>
        </mxCell>
        <mxCell id="jiIdjgE5yJWBijh_GqS3-21" value="dob" style="shape=partialRectangle;top=0;left=0;right=0;bottom=0;align=left;verticalAlign=top;fillColor=none;spacingLeft=34;spacingRight=4;overflow=hidden;rotatable=0;points=[[0,0.5],[1,0.5]];portConstraint=eastwest;dropTarget=0;fontSize=12;" parent="jiIdjgE5yJWBijh_GqS3-16" vertex="1">
          <mxGeometry y="82" width="160" height="26" as="geometry"/>
        </mxCell>
        <mxCell id="jiIdjgE5yJWBijh_GqS3-22" value="" style="shape=partialRectangle;top=0;left=0;bottom=0;fillColor=none;align=left;verticalAlign=top;spacingLeft=4;spacingRight=4;overflow=hidden;rotatable=0;points=[];portConstraint=eastwest;part=1;fontSize=12;" parent="jiIdjgE5yJWBijh_GqS3-21" vertex="1" connectable="0">
          <mxGeometry width="30" height="26" as="geometry"/>
        </mxCell>
        <mxCell id="jiIdjgE5yJWBijh_GqS3-23" value="phone" style="shape=partialRectangle;top=0;left=0;right=0;bottom=0;align=left;verticalAlign=top;fillColor=none;spacingLeft=34;spacingRight=4;overflow=hidden;rotatable=0;points=[[0,0.5],[1,0.5]];portConstraint=eastwest;dropTarget=0;fontSize=12;" parent="jiIdjgE5yJWBijh_GqS3-16" vertex="1">
          <mxGeometry y="108" width="160" height="26" as="geometry"/>
        </mxCell>
        <mxCell id="jiIdjgE5yJWBijh_GqS3-24" value="" style="shape=partialRectangle;top=0;left=0;bottom=0;fillColor=none;align=left;verticalAlign=top;spacingLeft=4;spacingRight=4;overflow=hidden;rotatable=0;points=[];portConstraint=eastwest;part=1;fontSize=12;" parent="jiIdjgE5yJWBijh_GqS3-23" vertex="1" connectable="0">
          <mxGeometry width="30" height="26" as="geometry"/>
        </mxCell>
        <mxCell id="jiIdjgE5yJWBijh_GqS3-38" value="address" style="shape=partialRectangle;top=0;left=0;right=0;bottom=0;align=left;verticalAlign=top;fillColor=none;spacingLeft=34;spacingRight=4;overflow=hidden;rotatable=0;points=[[0,0.5],[1,0.5]];portConstraint=eastwest;dropTarget=0;fontSize=12;" parent="jiIdjgE5yJWBijh_GqS3-16" vertex="1">
          <mxGeometry y="134" width="160" height="26" as="geometry"/>
        </mxCell>
        <mxCell id="jiIdjgE5yJWBijh_GqS3-39" value="" style="shape=partialRectangle;top=0;left=0;bottom=0;fillColor=none;align=left;verticalAlign=top;spacingLeft=4;spacingRight=4;overflow=hidden;rotatable=0;points=[];portConstraint=eastwest;part=1;fontSize=12;" parent="jiIdjgE5yJWBijh_GqS3-38" vertex="1" connectable="0">
          <mxGeometry width="30" height="26" as="geometry"/>
        </mxCell>
        <mxCell id="jiIdjgE5yJWBijh_GqS3-25" value="" style="shape=partialRectangle;top=0;left=0;right=0;bottom=0;align=left;verticalAlign=top;fillColor=none;spacingLeft=34;spacingRight=4;overflow=hidden;rotatable=0;points=[[0,0.5],[1,0.5]];portConstraint=eastwest;dropTarget=0;fontSize=12;" parent="jiIdjgE5yJWBijh_GqS3-16" vertex="1">
          <mxGeometry y="160" width="160" height="10" as="geometry"/>
        </mxCell>
        <mxCell id="jiIdjgE5yJWBijh_GqS3-26" value="" style="shape=partialRectangle;top=0;left=0;bottom=0;fillColor=none;align=left;verticalAlign=top;spacingLeft=4;spacingRight=4;overflow=hidden;rotatable=0;points=[];portConstraint=eastwest;part=1;fontSize=12;" parent="jiIdjgE5yJWBijh_GqS3-25" vertex="1" connectable="0">
          <mxGeometry width="30" height="10" as="geometry"/>
        </mxCell>
        <mxCell id="e-rCDU7-2tgsD-Hm22mC-0" value="user_id" style="shape=partialRectangle;top=0;left=0;right=0;bottom=0;align=left;verticalAlign=top;fillColor=none;spacingLeft=34;spacingRight=4;overflow=hidden;rotatable=0;points=[[0,0.5],[1,0.5]];portConstraint=eastwest;dropTarget=0;fontSize=12;" vertex="1" parent="jiIdjgE5yJWBijh_GqS3-16">
          <mxGeometry y="170" width="160" height="26" as="geometry"/>
        </mxCell>
        <mxCell id="e-rCDU7-2tgsD-Hm22mC-1" value="FK" style="shape=partialRectangle;top=0;left=0;bottom=0;fillColor=none;align=left;verticalAlign=top;spacingLeft=4;spacingRight=4;overflow=hidden;rotatable=0;points=[];portConstraint=eastwest;part=1;fontSize=12;" vertex="1" connectable="0" parent="e-rCDU7-2tgsD-Hm22mC-0">
          <mxGeometry width="30" height="26" as="geometry"/>
        </mxCell>
        <mxCell id="e-rCDU7-2tgsD-Hm22mC-87" style="edgeStyle=orthogonalEdgeStyle;rounded=0;orthogonalLoop=1;jettySize=auto;html=1;entryX=1;entryY=0.5;entryDx=0;entryDy=0;startArrow=ERzeroToMany;startFill=1;endArrow=ERmandOne;endFill=0;" edge="1" parent="WIyWlLk6GJQsqaUBKTNV-1" source="e-rCDU7-2tgsD-Hm22mC-70" target="e-rCDU7-2tgsD-Hm22mC-9">
          <mxGeometry relative="1" as="geometry"/>
        </mxCell>
        <mxCell id="e-rCDU7-2tgsD-Hm22mC-70" value="Schedule" style="swimlane;fontStyle=0;childLayout=stackLayout;horizontal=1;startSize=26;fillColor=#e0e0e0;horizontalStack=0;resizeParent=1;resizeParentMax=0;resizeLast=0;collapsible=1;marginBottom=0;swimlaneFillColor=#ffffff;align=center;fontSize=14;" vertex="1" parent="WIyWlLk6GJQsqaUBKTNV-1">
          <mxGeometry x="1053" y="270" width="160" height="186" as="geometry"/>
        </mxCell>
        <mxCell id="e-rCDU7-2tgsD-Hm22mC-71" value="id" style="shape=partialRectangle;top=0;left=0;right=0;bottom=1;align=left;verticalAlign=middle;fillColor=none;spacingLeft=34;spacingRight=4;overflow=hidden;rotatable=0;points=[[0,0.5],[1,0.5]];portConstraint=eastwest;dropTarget=0;fontStyle=5;fontSize=12;" vertex="1" parent="e-rCDU7-2tgsD-Hm22mC-70">
          <mxGeometry y="26" width="160" height="30" as="geometry"/>
        </mxCell>
        <mxCell id="e-rCDU7-2tgsD-Hm22mC-72" value="PK" style="shape=partialRectangle;top=0;left=0;bottom=0;fillColor=none;align=left;verticalAlign=middle;spacingLeft=4;spacingRight=4;overflow=hidden;rotatable=0;points=[];portConstraint=eastwest;part=1;fontSize=12;" vertex="1" connectable="0" parent="e-rCDU7-2tgsD-Hm22mC-71">
          <mxGeometry width="30" height="30" as="geometry"/>
        </mxCell>
        <mxCell id="e-rCDU7-2tgsD-Hm22mC-73" value="name" style="shape=partialRectangle;top=0;left=0;right=0;bottom=0;align=left;verticalAlign=top;fillColor=none;spacingLeft=34;spacingRight=4;overflow=hidden;rotatable=0;points=[[0,0.5],[1,0.5]];portConstraint=eastwest;dropTarget=0;fontSize=12;" vertex="1" parent="e-rCDU7-2tgsD-Hm22mC-70">
          <mxGeometry y="56" width="160" height="26" as="geometry"/>
        </mxCell>
        <mxCell id="e-rCDU7-2tgsD-Hm22mC-74" value="" style="shape=partialRectangle;top=0;left=0;bottom=0;fillColor=none;align=left;verticalAlign=top;spacingLeft=4;spacingRight=4;overflow=hidden;rotatable=0;points=[];portConstraint=eastwest;part=1;fontSize=12;" vertex="1" connectable="0" parent="e-rCDU7-2tgsD-Hm22mC-73">
          <mxGeometry width="30" height="26" as="geometry"/>
        </mxCell>
        <mxCell id="e-rCDU7-2tgsD-Hm22mC-75" value="start_date" style="shape=partialRectangle;top=0;left=0;right=0;bottom=0;align=left;verticalAlign=top;fillColor=none;spacingLeft=34;spacingRight=4;overflow=hidden;rotatable=0;points=[[0,0.5],[1,0.5]];portConstraint=eastwest;dropTarget=0;fontSize=12;" vertex="1" parent="e-rCDU7-2tgsD-Hm22mC-70">
          <mxGeometry y="82" width="160" height="26" as="geometry"/>
        </mxCell>
        <mxCell id="e-rCDU7-2tgsD-Hm22mC-76" value="" style="shape=partialRectangle;top=0;left=0;bottom=0;fillColor=none;align=left;verticalAlign=top;spacingLeft=4;spacingRight=4;overflow=hidden;rotatable=0;points=[];portConstraint=eastwest;part=1;fontSize=12;" vertex="1" connectable="0" parent="e-rCDU7-2tgsD-Hm22mC-75">
          <mxGeometry width="30" height="26" as="geometry"/>
        </mxCell>
        <mxCell id="e-rCDU7-2tgsD-Hm22mC-77" value="end_date" style="shape=partialRectangle;top=0;left=0;right=0;bottom=0;align=left;verticalAlign=top;fillColor=none;spacingLeft=34;spacingRight=4;overflow=hidden;rotatable=0;points=[[0,0.5],[1,0.5]];portConstraint=eastwest;dropTarget=0;fontSize=12;" vertex="1" parent="e-rCDU7-2tgsD-Hm22mC-70">
          <mxGeometry y="108" width="160" height="26" as="geometry"/>
        </mxCell>
        <mxCell id="e-rCDU7-2tgsD-Hm22mC-78" value="" style="shape=partialRectangle;top=0;left=0;bottom=0;fillColor=none;align=left;verticalAlign=top;spacingLeft=4;spacingRight=4;overflow=hidden;rotatable=0;points=[];portConstraint=eastwest;part=1;fontSize=12;" vertex="1" connectable="0" parent="e-rCDU7-2tgsD-Hm22mC-77">
          <mxGeometry width="30" height="26" as="geometry"/>
        </mxCell>
        <mxCell id="e-rCDU7-2tgsD-Hm22mC-79" value="rate" style="shape=partialRectangle;top=0;left=0;right=0;bottom=0;align=left;verticalAlign=top;fillColor=none;spacingLeft=34;spacingRight=4;overflow=hidden;rotatable=0;points=[[0,0.5],[1,0.5]];portConstraint=eastwest;dropTarget=0;fontSize=12;" vertex="1" parent="e-rCDU7-2tgsD-Hm22mC-70">
          <mxGeometry y="134" width="160" height="26" as="geometry"/>
        </mxCell>
        <mxCell id="e-rCDU7-2tgsD-Hm22mC-80" value="" style="shape=partialRectangle;top=0;left=0;bottom=0;fillColor=none;align=left;verticalAlign=top;spacingLeft=4;spacingRight=4;overflow=hidden;rotatable=0;points=[];portConstraint=eastwest;part=1;fontSize=12;" vertex="1" connectable="0" parent="e-rCDU7-2tgsD-Hm22mC-79">
          <mxGeometry width="30" height="26" as="geometry"/>
        </mxCell>
        <mxCell id="e-rCDU7-2tgsD-Hm22mC-83" value="profile_id" style="shape=partialRectangle;top=0;left=0;right=0;bottom=0;align=left;verticalAlign=top;fillColor=none;spacingLeft=34;spacingRight=4;overflow=hidden;rotatable=0;points=[[0,0.5],[1,0.5]];portConstraint=eastwest;dropTarget=0;fontSize=12;" vertex="1" parent="e-rCDU7-2tgsD-Hm22mC-70">
          <mxGeometry y="160" width="160" height="26" as="geometry"/>
        </mxCell>
        <mxCell id="e-rCDU7-2tgsD-Hm22mC-84" value="FK" style="shape=partialRectangle;top=0;left=0;bottom=0;fillColor=none;align=left;verticalAlign=top;spacingLeft=4;spacingRight=4;overflow=hidden;rotatable=0;points=[];portConstraint=eastwest;part=1;fontSize=12;" vertex="1" connectable="0" parent="e-rCDU7-2tgsD-Hm22mC-83">
          <mxGeometry width="30" height="26" as="geometry"/>
        </mxCell>
        <mxCell id="e-rCDU7-2tgsD-Hm22mC-65" value="" style="edgeStyle=orthogonalEdgeStyle;rounded=0;orthogonalLoop=1;jettySize=auto;html=1;startArrow=ERzeroToMany;startFill=1;endArrow=ERmandOne;endFill=0;" edge="1" parent="WIyWlLk6GJQsqaUBKTNV-1" source="e-rCDU7-2tgsD-Hm22mC-34" target="e-rCDU7-2tgsD-Hm22mC-50">
          <mxGeometry relative="1" as="geometry"/>
        </mxCell>
        <mxCell id="e-rCDU7-2tgsD-Hm22mC-86" style="edgeStyle=orthogonalEdgeStyle;rounded=0;orthogonalLoop=1;jettySize=auto;html=1;entryX=0.007;entryY=0.042;entryDx=0;entryDy=0;entryPerimeter=0;startArrow=ERzeroToMany;startFill=1;endArrow=ERmandOne;endFill=0;" edge="1" parent="WIyWlLk6GJQsqaUBKTNV-1" source="e-rCDU7-2tgsD-Hm22mC-34" target="e-rCDU7-2tgsD-Hm22mC-19">
          <mxGeometry relative="1" as="geometry">
            <Array as="points">
              <mxPoint x="710" y="385"/>
              <mxPoint x="821" y="385"/>
            </Array>
          </mxGeometry>
        </mxCell>
        <mxCell id="e-rCDU7-2tgsD-Hm22mC-34" value="AmenitiesProperty" style="swimlane;fontStyle=0;childLayout=stackLayout;horizontal=1;startSize=26;fillColor=#e0e0e0;horizontalStack=0;resizeParent=1;resizeParentMax=0;resizeLast=0;collapsible=1;marginBottom=0;swimlaneFillColor=#ffffff;align=center;fontSize=14;" vertex="1" parent="WIyWlLk6GJQsqaUBKTNV-1">
          <mxGeometry x="630" y="610" width="160" height="108" as="geometry"/>
        </mxCell>
        <mxCell id="e-rCDU7-2tgsD-Hm22mC-35" value="id" style="shape=partialRectangle;top=0;left=0;right=0;bottom=1;align=left;verticalAlign=middle;fillColor=none;spacingLeft=34;spacingRight=4;overflow=hidden;rotatable=0;points=[[0,0.5],[1,0.5]];portConstraint=eastwest;dropTarget=0;fontStyle=5;fontSize=12;" vertex="1" parent="e-rCDU7-2tgsD-Hm22mC-34">
          <mxGeometry y="26" width="160" height="30" as="geometry"/>
        </mxCell>
        <mxCell id="e-rCDU7-2tgsD-Hm22mC-36" value="PK" style="shape=partialRectangle;top=0;left=0;bottom=0;fillColor=none;align=left;verticalAlign=middle;spacingLeft=4;spacingRight=4;overflow=hidden;rotatable=0;points=[];portConstraint=eastwest;part=1;fontSize=12;" vertex="1" connectable="0" parent="e-rCDU7-2tgsD-Hm22mC-35">
          <mxGeometry width="30" height="30" as="geometry"/>
        </mxCell>
        <mxCell id="e-rCDU7-2tgsD-Hm22mC-47" value="profile_id" style="shape=partialRectangle;top=0;left=0;right=0;bottom=0;align=left;verticalAlign=top;fillColor=none;spacingLeft=34;spacingRight=4;overflow=hidden;rotatable=0;points=[[0,0.5],[1,0.5]];portConstraint=eastwest;dropTarget=0;fontSize=12;" vertex="1" parent="e-rCDU7-2tgsD-Hm22mC-34">
          <mxGeometry y="56" width="160" height="26" as="geometry"/>
        </mxCell>
        <mxCell id="e-rCDU7-2tgsD-Hm22mC-48" value="FK" style="shape=partialRectangle;top=0;left=0;bottom=0;fillColor=none;align=left;verticalAlign=top;spacingLeft=4;spacingRight=4;overflow=hidden;rotatable=0;points=[];portConstraint=eastwest;part=1;fontSize=12;" vertex="1" connectable="0" parent="e-rCDU7-2tgsD-Hm22mC-47">
          <mxGeometry width="30" height="26" as="geometry"/>
        </mxCell>
        <mxCell id="e-rCDU7-2tgsD-Hm22mC-66" value="amenity_id" style="shape=partialRectangle;top=0;left=0;right=0;bottom=0;align=left;verticalAlign=top;fillColor=none;spacingLeft=34;spacingRight=4;overflow=hidden;rotatable=0;points=[[0,0.5],[1,0.5]];portConstraint=eastwest;dropTarget=0;fontSize=12;" vertex="1" parent="e-rCDU7-2tgsD-Hm22mC-34">
          <mxGeometry y="82" width="160" height="26" as="geometry"/>
        </mxCell>
        <mxCell id="e-rCDU7-2tgsD-Hm22mC-67" value="FK" style="shape=partialRectangle;top=0;left=0;bottom=0;fillColor=none;align=left;verticalAlign=top;spacingLeft=4;spacingRight=4;overflow=hidden;rotatable=0;points=[];portConstraint=eastwest;part=1;fontSize=12;" vertex="1" connectable="0" parent="e-rCDU7-2tgsD-Hm22mC-66">
          <mxGeometry width="30" height="26" as="geometry"/>
        </mxCell>
        <mxCell id="e-rCDU7-2tgsD-Hm22mC-50" value="Amenity" style="swimlane;fontStyle=0;childLayout=stackLayout;horizontal=1;startSize=26;fillColor=#e0e0e0;horizontalStack=0;resizeParent=1;resizeParentMax=0;resizeLast=0;collapsible=1;marginBottom=0;swimlaneFillColor=#ffffff;align=center;fontSize=14;" vertex="1" parent="WIyWlLk6GJQsqaUBKTNV-1">
          <mxGeometry x="630" y="774" width="160" height="82" as="geometry"/>
        </mxCell>
        <mxCell id="e-rCDU7-2tgsD-Hm22mC-51" value="id" style="shape=partialRectangle;top=0;left=0;right=0;bottom=1;align=left;verticalAlign=middle;fillColor=none;spacingLeft=34;spacingRight=4;overflow=hidden;rotatable=0;points=[[0,0.5],[1,0.5]];portConstraint=eastwest;dropTarget=0;fontStyle=5;fontSize=12;" vertex="1" parent="e-rCDU7-2tgsD-Hm22mC-50">
          <mxGeometry y="26" width="160" height="30" as="geometry"/>
        </mxCell>
        <mxCell id="e-rCDU7-2tgsD-Hm22mC-52" value="PK" style="shape=partialRectangle;top=0;left=0;bottom=0;fillColor=none;align=left;verticalAlign=middle;spacingLeft=4;spacingRight=4;overflow=hidden;rotatable=0;points=[];portConstraint=eastwest;part=1;fontSize=12;" vertex="1" connectable="0" parent="e-rCDU7-2tgsD-Hm22mC-51">
          <mxGeometry width="30" height="30" as="geometry"/>
        </mxCell>
        <mxCell id="e-rCDU7-2tgsD-Hm22mC-53" value="name" style="shape=partialRectangle;top=0;left=0;right=0;bottom=0;align=left;verticalAlign=top;fillColor=none;spacingLeft=34;spacingRight=4;overflow=hidden;rotatable=0;points=[[0,0.5],[1,0.5]];portConstraint=eastwest;dropTarget=0;fontSize=12;" vertex="1" parent="e-rCDU7-2tgsD-Hm22mC-50">
          <mxGeometry y="56" width="160" height="26" as="geometry"/>
        </mxCell>
        <mxCell id="e-rCDU7-2tgsD-Hm22mC-54" value="" style="shape=partialRectangle;top=0;left=0;bottom=0;fillColor=none;align=left;verticalAlign=top;spacingLeft=4;spacingRight=4;overflow=hidden;rotatable=0;points=[];portConstraint=eastwest;part=1;fontSize=12;" vertex="1" connectable="0" parent="e-rCDU7-2tgsD-Hm22mC-53">
          <mxGeometry width="30" height="26" as="geometry"/>
        </mxCell>
        <mxCell id="e-rCDU7-2tgsD-Hm22mC-33" value="" style="edgeStyle=orthogonalEdgeStyle;rounded=0;orthogonalLoop=1;jettySize=auto;html=1;startArrow=ERmandOne;startFill=0;endArrow=ERzeroToMany;endFill=1;" edge="1" parent="WIyWlLk6GJQsqaUBKTNV-1" source="e-rCDU7-2tgsD-Hm22mC-4" target="e-rCDU7-2tgsD-Hm22mC-22">
          <mxGeometry relative="1" as="geometry"/>
        </mxCell>
        <mxCell id="e-rCDU7-2tgsD-Hm22mC-4" value="Property" style="swimlane;fontStyle=0;childLayout=stackLayout;horizontal=1;startSize=26;fillColor=#e0e0e0;horizontalStack=0;resizeParent=1;resizeParentMax=0;resizeLast=0;collapsible=1;marginBottom=0;swimlaneFillColor=#ffffff;align=center;fontSize=14;" vertex="1" parent="WIyWlLk6GJQsqaUBKTNV-1">
          <mxGeometry x="820" y="268" width="160" height="160" as="geometry"/>
        </mxCell>
        <mxCell id="e-rCDU7-2tgsD-Hm22mC-5" value="id" style="shape=partialRectangle;top=0;left=0;right=0;bottom=1;align=left;verticalAlign=middle;fillColor=none;spacingLeft=34;spacingRight=4;overflow=hidden;rotatable=0;points=[[0,0.5],[1,0.5]];portConstraint=eastwest;dropTarget=0;fontStyle=5;fontSize=12;" vertex="1" parent="e-rCDU7-2tgsD-Hm22mC-4">
          <mxGeometry y="26" width="160" height="30" as="geometry"/>
        </mxCell>
        <mxCell id="e-rCDU7-2tgsD-Hm22mC-6" value="PK" style="shape=partialRectangle;top=0;left=0;bottom=0;fillColor=none;align=left;verticalAlign=middle;spacingLeft=4;spacingRight=4;overflow=hidden;rotatable=0;points=[];portConstraint=eastwest;part=1;fontSize=12;" vertex="1" connectable="0" parent="e-rCDU7-2tgsD-Hm22mC-5">
          <mxGeometry width="30" height="30" as="geometry"/>
        </mxCell>
        <mxCell id="e-rCDU7-2tgsD-Hm22mC-7" value="address" style="shape=partialRectangle;top=0;left=0;right=0;bottom=0;align=left;verticalAlign=top;fillColor=none;spacingLeft=34;spacingRight=4;overflow=hidden;rotatable=0;points=[[0,0.5],[1,0.5]];portConstraint=eastwest;dropTarget=0;fontSize=12;" vertex="1" parent="e-rCDU7-2tgsD-Hm22mC-4">
          <mxGeometry y="56" width="160" height="26" as="geometry"/>
        </mxCell>
        <mxCell id="e-rCDU7-2tgsD-Hm22mC-8" value="" style="shape=partialRectangle;top=0;left=0;bottom=0;fillColor=none;align=left;verticalAlign=top;spacingLeft=4;spacingRight=4;overflow=hidden;rotatable=0;points=[];portConstraint=eastwest;part=1;fontSize=12;" vertex="1" connectable="0" parent="e-rCDU7-2tgsD-Hm22mC-7">
          <mxGeometry width="30" height="26" as="geometry"/>
        </mxCell>
        <mxCell id="e-rCDU7-2tgsD-Hm22mC-9" value="Property Type" style="shape=partialRectangle;top=0;left=0;right=0;bottom=0;align=left;verticalAlign=top;fillColor=none;spacingLeft=34;spacingRight=4;overflow=hidden;rotatable=0;points=[[0,0.5],[1,0.5]];portConstraint=eastwest;dropTarget=0;fontSize=12;" vertex="1" parent="e-rCDU7-2tgsD-Hm22mC-4">
          <mxGeometry y="82" width="160" height="26" as="geometry"/>
        </mxCell>
        <mxCell id="e-rCDU7-2tgsD-Hm22mC-10" value="" style="shape=partialRectangle;top=0;left=0;bottom=0;fillColor=none;align=left;verticalAlign=top;spacingLeft=4;spacingRight=4;overflow=hidden;rotatable=0;points=[];portConstraint=eastwest;part=1;fontSize=12;" vertex="1" connectable="0" parent="e-rCDU7-2tgsD-Hm22mC-9">
          <mxGeometry width="30" height="26" as="geometry"/>
        </mxCell>
        <mxCell id="e-rCDU7-2tgsD-Hm22mC-11" value="phone" style="shape=partialRectangle;top=0;left=0;right=0;bottom=0;align=left;verticalAlign=top;fillColor=none;spacingLeft=34;spacingRight=4;overflow=hidden;rotatable=0;points=[[0,0.5],[1,0.5]];portConstraint=eastwest;dropTarget=0;fontSize=12;" vertex="1" parent="e-rCDU7-2tgsD-Hm22mC-4">
          <mxGeometry y="108" width="160" height="26" as="geometry"/>
        </mxCell>
        <mxCell id="e-rCDU7-2tgsD-Hm22mC-12" value="" style="shape=partialRectangle;top=0;left=0;bottom=0;fillColor=none;align=left;verticalAlign=top;spacingLeft=4;spacingRight=4;overflow=hidden;rotatable=0;points=[];portConstraint=eastwest;part=1;fontSize=12;" vertex="1" connectable="0" parent="e-rCDU7-2tgsD-Hm22mC-11">
          <mxGeometry width="30" height="26" as="geometry"/>
        </mxCell>
        <mxCell id="e-rCDU7-2tgsD-Hm22mC-19" value="profile_id" style="shape=partialRectangle;top=0;left=0;right=0;bottom=0;align=left;verticalAlign=top;fillColor=none;spacingLeft=34;spacingRight=4;overflow=hidden;rotatable=0;points=[[0,0.5],[1,0.5]];portConstraint=eastwest;dropTarget=0;fontSize=12;" vertex="1" parent="e-rCDU7-2tgsD-Hm22mC-4">
          <mxGeometry y="134" width="160" height="26" as="geometry"/>
        </mxCell>
        <mxCell id="e-rCDU7-2tgsD-Hm22mC-20" value="FK" style="shape=partialRectangle;top=0;left=0;bottom=0;fillColor=none;align=left;verticalAlign=top;spacingLeft=4;spacingRight=4;overflow=hidden;rotatable=0;points=[];portConstraint=eastwest;part=1;fontSize=12;" vertex="1" connectable="0" parent="e-rCDU7-2tgsD-Hm22mC-19">
          <mxGeometry width="30" height="26" as="geometry"/>
        </mxCell>
        <mxCell id="e-rCDU7-2tgsD-Hm22mC-143" style="edgeStyle=orthogonalEdgeStyle;rounded=0;orthogonalLoop=1;jettySize=auto;html=1;entryX=0.5;entryY=0;entryDx=0;entryDy=0;startArrow=ERmandOne;startFill=0;endArrow=ERzeroToMany;endFill=1;" edge="1" parent="WIyWlLk6GJQsqaUBKTNV-1" source="e-rCDU7-2tgsD-Hm22mC-22" target="e-rCDU7-2tgsD-Hm22mC-131">
          <mxGeometry relative="1" as="geometry"/>
        </mxCell>
        <mxCell id="e-rCDU7-2tgsD-Hm22mC-22" value="Room" style="swimlane;fontStyle=0;childLayout=stackLayout;horizontal=1;startSize=26;fillColor=#e0e0e0;horizontalStack=0;resizeParent=1;resizeParentMax=0;resizeLast=0;collapsible=1;marginBottom=0;swimlaneFillColor=#ffffff;align=center;fontSize=14;" vertex="1" parent="WIyWlLk6GJQsqaUBKTNV-1">
          <mxGeometry x="820" y="490" width="160" height="108" as="geometry"/>
        </mxCell>
        <mxCell id="e-rCDU7-2tgsD-Hm22mC-23" value="id" style="shape=partialRectangle;top=0;left=0;right=0;bottom=1;align=left;verticalAlign=middle;fillColor=none;spacingLeft=34;spacingRight=4;overflow=hidden;rotatable=0;points=[[0,0.5],[1,0.5]];portConstraint=eastwest;dropTarget=0;fontStyle=5;fontSize=12;" vertex="1" parent="e-rCDU7-2tgsD-Hm22mC-22">
          <mxGeometry y="26" width="160" height="30" as="geometry"/>
        </mxCell>
        <mxCell id="e-rCDU7-2tgsD-Hm22mC-24" value="PK" style="shape=partialRectangle;top=0;left=0;bottom=0;fillColor=none;align=left;verticalAlign=middle;spacingLeft=4;spacingRight=4;overflow=hidden;rotatable=0;points=[];portConstraint=eastwest;part=1;fontSize=12;" vertex="1" connectable="0" parent="e-rCDU7-2tgsD-Hm22mC-23">
          <mxGeometry width="30" height="30" as="geometry"/>
        </mxCell>
        <mxCell id="e-rCDU7-2tgsD-Hm22mC-25" value="name" style="shape=partialRectangle;top=0;left=0;right=0;bottom=0;align=left;verticalAlign=top;fillColor=none;spacingLeft=34;spacingRight=4;overflow=hidden;rotatable=0;points=[[0,0.5],[1,0.5]];portConstraint=eastwest;dropTarget=0;fontSize=12;" vertex="1" parent="e-rCDU7-2tgsD-Hm22mC-22">
          <mxGeometry y="56" width="160" height="26" as="geometry"/>
        </mxCell>
        <mxCell id="e-rCDU7-2tgsD-Hm22mC-26" value="" style="shape=partialRectangle;top=0;left=0;bottom=0;fillColor=none;align=left;verticalAlign=top;spacingLeft=4;spacingRight=4;overflow=hidden;rotatable=0;points=[];portConstraint=eastwest;part=1;fontSize=12;" vertex="1" connectable="0" parent="e-rCDU7-2tgsD-Hm22mC-25">
          <mxGeometry width="30" height="26" as="geometry"/>
        </mxCell>
        <mxCell id="e-rCDU7-2tgsD-Hm22mC-31" value="property_id" style="shape=partialRectangle;top=0;left=0;right=0;bottom=0;align=left;verticalAlign=top;fillColor=none;spacingLeft=34;spacingRight=4;overflow=hidden;rotatable=0;points=[[0,0.5],[1,0.5]];portConstraint=eastwest;dropTarget=0;fontSize=12;" vertex="1" parent="e-rCDU7-2tgsD-Hm22mC-22">
          <mxGeometry y="82" width="160" height="26" as="geometry"/>
        </mxCell>
        <mxCell id="e-rCDU7-2tgsD-Hm22mC-32" value="FK" style="shape=partialRectangle;top=0;left=0;bottom=0;fillColor=none;align=left;verticalAlign=top;spacingLeft=4;spacingRight=4;overflow=hidden;rotatable=0;points=[];portConstraint=eastwest;part=1;fontSize=12;" vertex="1" connectable="0" parent="e-rCDU7-2tgsD-Hm22mC-31">
          <mxGeometry width="30" height="26" as="geometry"/>
        </mxCell>
        <mxCell id="e-rCDU7-2tgsD-Hm22mC-88" value="Booking" style="swimlane;fontStyle=0;childLayout=stackLayout;horizontal=1;startSize=26;fillColor=#e0e0e0;horizontalStack=0;resizeParent=1;resizeParentMax=0;resizeLast=0;collapsible=1;marginBottom=0;swimlaneFillColor=#ffffff;align=center;fontSize=14;" vertex="1" parent="WIyWlLk6GJQsqaUBKTNV-1">
          <mxGeometry x="590" y="130" width="160" height="134" as="geometry"/>
        </mxCell>
        <mxCell id="e-rCDU7-2tgsD-Hm22mC-89" value="id" style="shape=partialRectangle;top=0;left=0;right=0;bottom=1;align=left;verticalAlign=middle;fillColor=none;spacingLeft=34;spacingRight=4;overflow=hidden;rotatable=0;points=[[0,0.5],[1,0.5]];portConstraint=eastwest;dropTarget=0;fontStyle=5;fontSize=12;" vertex="1" parent="e-rCDU7-2tgsD-Hm22mC-88">
          <mxGeometry y="26" width="160" height="30" as="geometry"/>
        </mxCell>
        <mxCell id="e-rCDU7-2tgsD-Hm22mC-90" value="PK" style="shape=partialRectangle;top=0;left=0;bottom=0;fillColor=none;align=left;verticalAlign=middle;spacingLeft=4;spacingRight=4;overflow=hidden;rotatable=0;points=[];portConstraint=eastwest;part=1;fontSize=12;" vertex="1" connectable="0" parent="e-rCDU7-2tgsD-Hm22mC-89">
          <mxGeometry width="30" height="30" as="geometry"/>
        </mxCell>
        <mxCell id="e-rCDU7-2tgsD-Hm22mC-93" value="start_date" style="shape=partialRectangle;top=0;left=0;right=0;bottom=0;align=left;verticalAlign=top;fillColor=none;spacingLeft=34;spacingRight=4;overflow=hidden;rotatable=0;points=[[0,0.5],[1,0.5]];portConstraint=eastwest;dropTarget=0;fontSize=12;" vertex="1" parent="e-rCDU7-2tgsD-Hm22mC-88">
          <mxGeometry y="56" width="160" height="26" as="geometry"/>
        </mxCell>
        <mxCell id="e-rCDU7-2tgsD-Hm22mC-94" value="" style="shape=partialRectangle;top=0;left=0;bottom=0;fillColor=none;align=left;verticalAlign=top;spacingLeft=4;spacingRight=4;overflow=hidden;rotatable=0;points=[];portConstraint=eastwest;part=1;fontSize=12;" vertex="1" connectable="0" parent="e-rCDU7-2tgsD-Hm22mC-93">
          <mxGeometry width="30" height="26" as="geometry"/>
        </mxCell>
        <mxCell id="e-rCDU7-2tgsD-Hm22mC-95" value="end_date" style="shape=partialRectangle;top=0;left=0;right=0;bottom=0;align=left;verticalAlign=top;fillColor=none;spacingLeft=34;spacingRight=4;overflow=hidden;rotatable=0;points=[[0,0.5],[1,0.5]];portConstraint=eastwest;dropTarget=0;fontSize=12;" vertex="1" parent="e-rCDU7-2tgsD-Hm22mC-88">
          <mxGeometry y="82" width="160" height="26" as="geometry"/>
        </mxCell>
        <mxCell id="e-rCDU7-2tgsD-Hm22mC-96" value="" style="shape=partialRectangle;top=0;left=0;bottom=0;fillColor=none;align=left;verticalAlign=top;spacingLeft=4;spacingRight=4;overflow=hidden;rotatable=0;points=[];portConstraint=eastwest;part=1;fontSize=12;" vertex="1" connectable="0" parent="e-rCDU7-2tgsD-Hm22mC-95">
          <mxGeometry width="30" height="26" as="geometry"/>
        </mxCell>
        <mxCell id="e-rCDU7-2tgsD-Hm22mC-99" value="profile_id" style="shape=partialRectangle;top=0;left=0;right=0;bottom=0;align=left;verticalAlign=top;fillColor=none;spacingLeft=34;spacingRight=4;overflow=hidden;rotatable=0;points=[[0,0.5],[1,0.5]];portConstraint=eastwest;dropTarget=0;fontSize=12;" vertex="1" parent="e-rCDU7-2tgsD-Hm22mC-88">
          <mxGeometry y="108" width="160" height="26" as="geometry"/>
        </mxCell>
        <mxCell id="e-rCDU7-2tgsD-Hm22mC-100" value="FK" style="shape=partialRectangle;top=0;left=0;bottom=0;fillColor=none;align=left;verticalAlign=top;spacingLeft=4;spacingRight=4;overflow=hidden;rotatable=0;points=[];portConstraint=eastwest;part=1;fontSize=12;" vertex="1" connectable="0" parent="e-rCDU7-2tgsD-Hm22mC-99">
          <mxGeometry width="30" height="26" as="geometry"/>
        </mxCell>
        <mxCell id="e-rCDU7-2tgsD-Hm22mC-103" style="edgeStyle=orthogonalEdgeStyle;rounded=0;orthogonalLoop=1;jettySize=auto;html=1;entryX=0.5;entryY=0;entryDx=0;entryDy=0;startArrow=ERzeroToMany;startFill=1;endArrow=ERmandOne;endFill=0;" edge="1" parent="WIyWlLk6GJQsqaUBKTNV-1" source="e-rCDU7-2tgsD-Hm22mC-89" target="e-rCDU7-2tgsD-Hm22mC-4">
          <mxGeometry relative="1" as="geometry"/>
        </mxCell>
        <mxCell id="e-rCDU7-2tgsD-Hm22mC-104" value="Review" style="swimlane;fontStyle=0;childLayout=stackLayout;horizontal=1;startSize=26;fillColor=#e0e0e0;horizontalStack=0;resizeParent=1;resizeParentMax=0;resizeLast=0;collapsible=1;marginBottom=0;swimlaneFillColor=#ffffff;align=center;fontSize=14;" vertex="1" parent="WIyWlLk6GJQsqaUBKTNV-1">
          <mxGeometry x="390" y="20" width="160" height="160" as="geometry"/>
        </mxCell>
        <mxCell id="e-rCDU7-2tgsD-Hm22mC-105" value="id" style="shape=partialRectangle;top=0;left=0;right=0;bottom=1;align=left;verticalAlign=middle;fillColor=none;spacingLeft=34;spacingRight=4;overflow=hidden;rotatable=0;points=[[0,0.5],[1,0.5]];portConstraint=eastwest;dropTarget=0;fontStyle=5;fontSize=12;" vertex="1" parent="e-rCDU7-2tgsD-Hm22mC-104">
          <mxGeometry y="26" width="160" height="30" as="geometry"/>
        </mxCell>
        <mxCell id="e-rCDU7-2tgsD-Hm22mC-106" value="PK" style="shape=partialRectangle;top=0;left=0;bottom=0;fillColor=none;align=left;verticalAlign=middle;spacingLeft=4;spacingRight=4;overflow=hidden;rotatable=0;points=[];portConstraint=eastwest;part=1;fontSize=12;" vertex="1" connectable="0" parent="e-rCDU7-2tgsD-Hm22mC-105">
          <mxGeometry width="30" height="30" as="geometry"/>
        </mxCell>
        <mxCell id="e-rCDU7-2tgsD-Hm22mC-107" value="title" style="shape=partialRectangle;top=0;left=0;right=0;bottom=0;align=left;verticalAlign=top;fillColor=none;spacingLeft=34;spacingRight=4;overflow=hidden;rotatable=0;points=[[0,0.5],[1,0.5]];portConstraint=eastwest;dropTarget=0;fontSize=12;" vertex="1" parent="e-rCDU7-2tgsD-Hm22mC-104">
          <mxGeometry y="56" width="160" height="26" as="geometry"/>
        </mxCell>
        <mxCell id="e-rCDU7-2tgsD-Hm22mC-108" value="" style="shape=partialRectangle;top=0;left=0;bottom=0;fillColor=none;align=left;verticalAlign=top;spacingLeft=4;spacingRight=4;overflow=hidden;rotatable=0;points=[];portConstraint=eastwest;part=1;fontSize=12;" vertex="1" connectable="0" parent="e-rCDU7-2tgsD-Hm22mC-107">
          <mxGeometry width="30" height="26" as="geometry"/>
        </mxCell>
        <mxCell id="e-rCDU7-2tgsD-Hm22mC-109" value="text" style="shape=partialRectangle;top=0;left=0;right=0;bottom=0;align=left;verticalAlign=top;fillColor=none;spacingLeft=34;spacingRight=4;overflow=hidden;rotatable=0;points=[[0,0.5],[1,0.5]];portConstraint=eastwest;dropTarget=0;fontSize=12;" vertex="1" parent="e-rCDU7-2tgsD-Hm22mC-104">
          <mxGeometry y="82" width="160" height="26" as="geometry"/>
        </mxCell>
        <mxCell id="e-rCDU7-2tgsD-Hm22mC-110" value="" style="shape=partialRectangle;top=0;left=0;bottom=0;fillColor=none;align=left;verticalAlign=top;spacingLeft=4;spacingRight=4;overflow=hidden;rotatable=0;points=[];portConstraint=eastwest;part=1;fontSize=12;" vertex="1" connectable="0" parent="e-rCDU7-2tgsD-Hm22mC-109">
          <mxGeometry width="30" height="26" as="geometry"/>
        </mxCell>
        <mxCell id="e-rCDU7-2tgsD-Hm22mC-111" value="rating" style="shape=partialRectangle;top=0;left=0;right=0;bottom=0;align=left;verticalAlign=top;fillColor=none;spacingLeft=34;spacingRight=4;overflow=hidden;rotatable=0;points=[[0,0.5],[1,0.5]];portConstraint=eastwest;dropTarget=0;fontSize=12;" vertex="1" parent="e-rCDU7-2tgsD-Hm22mC-104">
          <mxGeometry y="108" width="160" height="26" as="geometry"/>
        </mxCell>
        <mxCell id="e-rCDU7-2tgsD-Hm22mC-112" value="" style="shape=partialRectangle;top=0;left=0;bottom=0;fillColor=none;align=left;verticalAlign=top;spacingLeft=4;spacingRight=4;overflow=hidden;rotatable=0;points=[];portConstraint=eastwest;part=1;fontSize=12;" vertex="1" connectable="0" parent="e-rCDU7-2tgsD-Hm22mC-111">
          <mxGeometry width="30" height="26" as="geometry"/>
        </mxCell>
        <mxCell id="e-rCDU7-2tgsD-Hm22mC-113" value="booking_id" style="shape=partialRectangle;top=0;left=0;right=0;bottom=0;align=left;verticalAlign=top;fillColor=none;spacingLeft=34;spacingRight=4;overflow=hidden;rotatable=0;points=[[0,0.5],[1,0.5]];portConstraint=eastwest;dropTarget=0;fontSize=12;" vertex="1" parent="e-rCDU7-2tgsD-Hm22mC-104">
          <mxGeometry y="134" width="160" height="26" as="geometry"/>
        </mxCell>
        <mxCell id="e-rCDU7-2tgsD-Hm22mC-114" value="FK" style="shape=partialRectangle;top=0;left=0;bottom=0;fillColor=none;align=left;verticalAlign=top;spacingLeft=4;spacingRight=4;overflow=hidden;rotatable=0;points=[];portConstraint=eastwest;part=1;fontSize=12;" vertex="1" connectable="0" parent="e-rCDU7-2tgsD-Hm22mC-113">
          <mxGeometry width="30" height="26" as="geometry"/>
        </mxCell>
        <mxCell id="e-rCDU7-2tgsD-Hm22mC-115" style="edgeStyle=orthogonalEdgeStyle;rounded=0;orthogonalLoop=1;jettySize=auto;html=1;entryX=0.5;entryY=0;entryDx=0;entryDy=0;startArrow=ERmandOne;startFill=0;endArrow=ERmandOne;endFill=0;" edge="1" parent="WIyWlLk6GJQsqaUBKTNV-1" source="e-rCDU7-2tgsD-Hm22mC-107" target="e-rCDU7-2tgsD-Hm22mC-88">
          <mxGeometry relative="1" as="geometry"/>
        </mxCell>
        <mxCell id="e-rCDU7-2tgsD-Hm22mC-128" style="edgeStyle=orthogonalEdgeStyle;rounded=0;orthogonalLoop=1;jettySize=auto;html=1;startArrow=ERzeroToMany;startFill=1;endArrow=ERmandOne;endFill=0;" edge="1" parent="WIyWlLk6GJQsqaUBKTNV-1" source="e-rCDU7-2tgsD-Hm22mC-116" target="e-rCDU7-2tgsD-Hm22mC-9">
          <mxGeometry relative="1" as="geometry">
            <Array as="points">
              <mxPoint x="610" y="632"/>
              <mxPoint x="610" y="363"/>
            </Array>
          </mxGeometry>
        </mxCell>
        <mxCell id="e-rCDU7-2tgsD-Hm22mC-116" value="Image" style="swimlane;fontStyle=0;childLayout=stackLayout;horizontal=1;startSize=26;fillColor=#e0e0e0;horizontalStack=0;resizeParent=1;resizeParentMax=0;resizeLast=0;collapsible=1;marginBottom=0;swimlaneFillColor=#ffffff;align=center;fontSize=14;" vertex="1" parent="WIyWlLk6GJQsqaUBKTNV-1">
          <mxGeometry x="350" y="560" width="160" height="144" as="geometry"/>
        </mxCell>
        <mxCell id="e-rCDU7-2tgsD-Hm22mC-117" value="id" style="shape=partialRectangle;top=0;left=0;right=0;bottom=1;align=left;verticalAlign=middle;fillColor=none;spacingLeft=34;spacingRight=4;overflow=hidden;rotatable=0;points=[[0,0.5],[1,0.5]];portConstraint=eastwest;dropTarget=0;fontStyle=5;fontSize=12;" vertex="1" parent="e-rCDU7-2tgsD-Hm22mC-116">
          <mxGeometry y="26" width="160" height="30" as="geometry"/>
        </mxCell>
        <mxCell id="e-rCDU7-2tgsD-Hm22mC-118" value="PK" style="shape=partialRectangle;top=0;left=0;bottom=0;fillColor=none;align=left;verticalAlign=middle;spacingLeft=4;spacingRight=4;overflow=hidden;rotatable=0;points=[];portConstraint=eastwest;part=1;fontSize=12;" vertex="1" connectable="0" parent="e-rCDU7-2tgsD-Hm22mC-117">
          <mxGeometry width="30" height="30" as="geometry"/>
        </mxCell>
        <mxCell id="e-rCDU7-2tgsD-Hm22mC-119" value="url" style="shape=partialRectangle;top=0;left=0;right=0;bottom=0;align=left;verticalAlign=top;fillColor=none;spacingLeft=34;spacingRight=4;overflow=hidden;rotatable=0;points=[[0,0.5],[1,0.5]];portConstraint=eastwest;dropTarget=0;fontSize=12;" vertex="1" parent="e-rCDU7-2tgsD-Hm22mC-116">
          <mxGeometry y="56" width="160" height="26" as="geometry"/>
        </mxCell>
        <mxCell id="e-rCDU7-2tgsD-Hm22mC-120" value="" style="shape=partialRectangle;top=0;left=0;bottom=0;fillColor=none;align=left;verticalAlign=top;spacingLeft=4;spacingRight=4;overflow=hidden;rotatable=0;points=[];portConstraint=eastwest;part=1;fontSize=12;" vertex="1" connectable="0" parent="e-rCDU7-2tgsD-Hm22mC-119">
          <mxGeometry width="30" height="26" as="geometry"/>
        </mxCell>
        <mxCell id="e-rCDU7-2tgsD-Hm22mC-121" value="model" style="shape=partialRectangle;top=0;left=0;right=0;bottom=0;align=left;verticalAlign=top;fillColor=none;spacingLeft=34;spacingRight=4;overflow=hidden;rotatable=0;points=[[0,0.5],[1,0.5]];portConstraint=eastwest;dropTarget=0;fontSize=12;" vertex="1" parent="e-rCDU7-2tgsD-Hm22mC-116">
          <mxGeometry y="82" width="160" height="26" as="geometry"/>
        </mxCell>
        <mxCell id="e-rCDU7-2tgsD-Hm22mC-122" value="" style="shape=partialRectangle;top=0;left=0;bottom=0;fillColor=none;align=left;verticalAlign=top;spacingLeft=4;spacingRight=4;overflow=hidden;rotatable=0;points=[];portConstraint=eastwest;part=1;fontSize=12;" vertex="1" connectable="0" parent="e-rCDU7-2tgsD-Hm22mC-121">
          <mxGeometry width="30" height="26" as="geometry"/>
        </mxCell>
        <mxCell id="e-rCDU7-2tgsD-Hm22mC-123" value="model_id" style="shape=partialRectangle;top=0;left=0;right=0;bottom=0;align=left;verticalAlign=top;fillColor=none;spacingLeft=34;spacingRight=4;overflow=hidden;rotatable=0;points=[[0,0.5],[1,0.5]];portConstraint=eastwest;dropTarget=0;fontSize=12;" vertex="1" parent="e-rCDU7-2tgsD-Hm22mC-116">
          <mxGeometry y="108" width="160" height="26" as="geometry"/>
        </mxCell>
        <mxCell id="e-rCDU7-2tgsD-Hm22mC-124" value="" style="shape=partialRectangle;top=0;left=0;bottom=0;fillColor=none;align=left;verticalAlign=top;spacingLeft=4;spacingRight=4;overflow=hidden;rotatable=0;points=[];portConstraint=eastwest;part=1;fontSize=12;" vertex="1" connectable="0" parent="e-rCDU7-2tgsD-Hm22mC-123">
          <mxGeometry width="30" height="26" as="geometry"/>
        </mxCell>
        <mxCell id="e-rCDU7-2tgsD-Hm22mC-125" value="" style="shape=partialRectangle;top=0;left=0;right=0;bottom=0;align=left;verticalAlign=top;fillColor=none;spacingLeft=34;spacingRight=4;overflow=hidden;rotatable=0;points=[[0,0.5],[1,0.5]];portConstraint=eastwest;dropTarget=0;fontSize=12;" vertex="1" parent="e-rCDU7-2tgsD-Hm22mC-116">
          <mxGeometry y="134" width="160" height="10" as="geometry"/>
        </mxCell>
        <mxCell id="e-rCDU7-2tgsD-Hm22mC-126" value="" style="shape=partialRectangle;top=0;left=0;bottom=0;fillColor=none;align=left;verticalAlign=top;spacingLeft=4;spacingRight=4;overflow=hidden;rotatable=0;points=[];portConstraint=eastwest;part=1;fontSize=12;" vertex="1" connectable="0" parent="e-rCDU7-2tgsD-Hm22mC-125">
          <mxGeometry width="30" height="10" as="geometry"/>
        </mxCell>
        <mxCell id="e-rCDU7-2tgsD-Hm22mC-131" value="BedsRoom" style="swimlane;fontStyle=0;childLayout=stackLayout;horizontal=1;startSize=26;fillColor=#e0e0e0;horizontalStack=0;resizeParent=1;resizeParentMax=0;resizeLast=0;collapsible=1;marginBottom=0;swimlaneFillColor=#ffffff;align=center;fontSize=14;" vertex="1" parent="WIyWlLk6GJQsqaUBKTNV-1">
          <mxGeometry x="820" y="670" width="160" height="108" as="geometry"/>
        </mxCell>
        <mxCell id="e-rCDU7-2tgsD-Hm22mC-132" value="id" style="shape=partialRectangle;top=0;left=0;right=0;bottom=1;align=left;verticalAlign=middle;fillColor=none;spacingLeft=34;spacingRight=4;overflow=hidden;rotatable=0;points=[[0,0.5],[1,0.5]];portConstraint=eastwest;dropTarget=0;fontStyle=5;fontSize=12;" vertex="1" parent="e-rCDU7-2tgsD-Hm22mC-131">
          <mxGeometry y="26" width="160" height="30" as="geometry"/>
        </mxCell>
        <mxCell id="e-rCDU7-2tgsD-Hm22mC-133" value="PK" style="shape=partialRectangle;top=0;left=0;bottom=0;fillColor=none;align=left;verticalAlign=middle;spacingLeft=4;spacingRight=4;overflow=hidden;rotatable=0;points=[];portConstraint=eastwest;part=1;fontSize=12;" vertex="1" connectable="0" parent="e-rCDU7-2tgsD-Hm22mC-132">
          <mxGeometry width="30" height="30" as="geometry"/>
        </mxCell>
        <mxCell id="e-rCDU7-2tgsD-Hm22mC-134" value="book_id" style="shape=partialRectangle;top=0;left=0;right=0;bottom=0;align=left;verticalAlign=top;fillColor=none;spacingLeft=34;spacingRight=4;overflow=hidden;rotatable=0;points=[[0,0.5],[1,0.5]];portConstraint=eastwest;dropTarget=0;fontSize=12;" vertex="1" parent="e-rCDU7-2tgsD-Hm22mC-131">
          <mxGeometry y="56" width="160" height="26" as="geometry"/>
        </mxCell>
        <mxCell id="e-rCDU7-2tgsD-Hm22mC-135" value="FK" style="shape=partialRectangle;top=0;left=0;bottom=0;fillColor=none;align=left;verticalAlign=top;spacingLeft=4;spacingRight=4;overflow=hidden;rotatable=0;points=[];portConstraint=eastwest;part=1;fontSize=12;" vertex="1" connectable="0" parent="e-rCDU7-2tgsD-Hm22mC-134">
          <mxGeometry width="30" height="26" as="geometry"/>
        </mxCell>
        <mxCell id="e-rCDU7-2tgsD-Hm22mC-136" value="room_id" style="shape=partialRectangle;top=0;left=0;right=0;bottom=0;align=left;verticalAlign=top;fillColor=none;spacingLeft=34;spacingRight=4;overflow=hidden;rotatable=0;points=[[0,0.5],[1,0.5]];portConstraint=eastwest;dropTarget=0;fontSize=12;" vertex="1" parent="e-rCDU7-2tgsD-Hm22mC-131">
          <mxGeometry y="82" width="160" height="26" as="geometry"/>
        </mxCell>
        <mxCell id="e-rCDU7-2tgsD-Hm22mC-137" value="FK" style="shape=partialRectangle;top=0;left=0;bottom=0;fillColor=none;align=left;verticalAlign=top;spacingLeft=4;spacingRight=4;overflow=hidden;rotatable=0;points=[];portConstraint=eastwest;part=1;fontSize=12;" vertex="1" connectable="0" parent="e-rCDU7-2tgsD-Hm22mC-136">
          <mxGeometry width="30" height="26" as="geometry"/>
        </mxCell>
        <mxCell id="e-rCDU7-2tgsD-Hm22mC-157" style="edgeStyle=orthogonalEdgeStyle;rounded=0;orthogonalLoop=1;jettySize=auto;html=1;startArrow=ERmandOne;startFill=0;endArrow=ERzeroToMany;endFill=1;" edge="1" parent="WIyWlLk6GJQsqaUBKTNV-1" source="e-rCDU7-2tgsD-Hm22mC-144" target="e-rCDU7-2tgsD-Hm22mC-131">
          <mxGeometry relative="1" as="geometry">
            <mxPoint x="900" y="780" as="targetPoint"/>
          </mxGeometry>
        </mxCell>
        <mxCell id="e-rCDU7-2tgsD-Hm22mC-144" value="Bed" style="swimlane;fontStyle=0;childLayout=stackLayout;horizontal=1;startSize=26;fillColor=#e0e0e0;horizontalStack=0;resizeParent=1;resizeParentMax=0;resizeLast=0;collapsible=1;marginBottom=0;swimlaneFillColor=#ffffff;align=center;fontSize=14;" vertex="1" parent="WIyWlLk6GJQsqaUBKTNV-1">
          <mxGeometry x="820" y="830" width="160" height="82" as="geometry"/>
        </mxCell>
        <mxCell id="e-rCDU7-2tgsD-Hm22mC-145" value="id" style="shape=partialRectangle;top=0;left=0;right=0;bottom=1;align=left;verticalAlign=middle;fillColor=none;spacingLeft=34;spacingRight=4;overflow=hidden;rotatable=0;points=[[0,0.5],[1,0.5]];portConstraint=eastwest;dropTarget=0;fontStyle=5;fontSize=12;" vertex="1" parent="e-rCDU7-2tgsD-Hm22mC-144">
          <mxGeometry y="26" width="160" height="30" as="geometry"/>
        </mxCell>
        <mxCell id="e-rCDU7-2tgsD-Hm22mC-146" value="PK" style="shape=partialRectangle;top=0;left=0;bottom=0;fillColor=none;align=left;verticalAlign=middle;spacingLeft=4;spacingRight=4;overflow=hidden;rotatable=0;points=[];portConstraint=eastwest;part=1;fontSize=12;" vertex="1" connectable="0" parent="e-rCDU7-2tgsD-Hm22mC-145">
          <mxGeometry width="30" height="30" as="geometry"/>
        </mxCell>
        <mxCell id="e-rCDU7-2tgsD-Hm22mC-147" value="type" style="shape=partialRectangle;top=0;left=0;right=0;bottom=0;align=left;verticalAlign=top;fillColor=none;spacingLeft=34;spacingRight=4;overflow=hidden;rotatable=0;points=[[0,0.5],[1,0.5]];portConstraint=eastwest;dropTarget=0;fontSize=12;" vertex="1" parent="e-rCDU7-2tgsD-Hm22mC-144">
          <mxGeometry y="56" width="160" height="26" as="geometry"/>
        </mxCell>
        <mxCell id="e-rCDU7-2tgsD-Hm22mC-148" value="" style="shape=partialRectangle;top=0;left=0;bottom=0;fillColor=none;align=left;verticalAlign=top;spacingLeft=4;spacingRight=4;overflow=hidden;rotatable=0;points=[];portConstraint=eastwest;part=1;fontSize=12;" vertex="1" connectable="0" parent="e-rCDU7-2tgsD-Hm22mC-147">
          <mxGeometry width="30" height="26" as="geometry"/>
        </mxCell>
        <mxCell id="e-rCDU7-2tgsD-Hm22mC-159" style="edgeStyle=orthogonalEdgeStyle;rounded=0;orthogonalLoop=1;jettySize=auto;html=1;startArrow=ERmandOne;startFill=0;endArrow=ERzeroToMany;endFill=1;" edge="1" parent="WIyWlLk6GJQsqaUBKTNV-1" source="jiIdjgE5yJWBijh_GqS3-17" target="e-rCDU7-2tgsD-Hm22mC-88">
          <mxGeometry relative="1" as="geometry"/>
        </mxCell>
      </root>
    </mxGraphModel>
  </diagram>
</mxfile>
